
<svg xmlns="http://www.w3.org/2000/svg" width="1000" height="1000" viewBox="0 0 1000 1000" version="1.1"><path d="M 369.299 60.624 C 367.538 61.492, 365.403 63.262, 364.555 64.557 C 363.706 65.852, 361.840 71.911, 360.406 78.023 C 358.973 84.134, 357.999 89.332, 358.240 89.574 C 358.482 89.815, 392.522 89.897, 433.885 89.756 L 509.091 89.500 442.795 74.234 C 406.333 65.838, 375.600 58.986, 374.500 59.007 C 373.400 59.028, 371.059 59.756, 369.299 60.624 M 277.062 109.827 C 275.188 110.832, 272.832 113.188, 271.827 115.062 C 270.094 118.294, 270 123.428, 270 215.234 L 270 312 285.500 312 L 301 312 301 230.450 C 301 158.781, 301.188 148.538, 302.549 145.906 C 303.400 144.259, 305.538 142.033, 307.299 140.960 C 310.441 139.043, 313.678 139.007, 483.250 139.004 L 656 139 656 123.500 L 656 108 468.234 108 C 288.295 108, 280.327 108.076, 277.062 109.827 M 675 126.729 L 675 138.909 681.750 139.204 L 688.500 139.500 688.500 194.250 L 688.500 249 697.250 249 L 706 249 706 196.655 L 706 144.311 697.750 136.505 C 693.212 132.212, 686.237 125.516, 682.250 121.625 L 675 114.550 675 126.729 M 767.471 179.835 C 789.487 201.744, 814.362 226.343, 822.750 234.500 L 838 249.331 838 273.666 L 838 298 844.490 298 L 850.980 298 851.240 344.470 L 851.500 390.939 874.749 290.211 C 894.496 204.660, 897.854 188.979, 897.041 186.144 C 896.515 184.308, 895.535 182.145, 894.865 181.337 C 894.194 180.529, 892.402 179.225, 890.882 178.439 C 889.361 177.653, 852.050 168.682, 807.967 158.505 C 763.884 148.327, 727.732 140, 727.629 140 C 727.527 140, 745.455 157.926, 767.471 179.835 M 689.305 271.932 C 689.627 274.644, 690.833 278.713, 691.986 280.973 C 693.139 283.234, 695.787 286.787, 697.869 288.869 C 699.951 290.951, 703.869 293.744, 706.577 295.077 C 711.500 297.500, 711.500 297.500, 765.250 297.783 L 819 298.066 819 289.533 L 819 281 768.565 281 C 735.362 281, 717.168 280.637, 715.315 279.936 C 713.767 279.351, 711.268 277.698, 709.762 276.261 C 708.257 274.825, 706.744 272.154, 706.401 270.325 C 705.777 267, 705.777 267, 697.249 267 L 688.721 267 689.305 271.932 M 110.418 331.969 C 109.274 332.432, 107.163 334.206, 105.729 335.910 C 104.255 337.662, 102.855 340.855, 102.508 343.255 C 102.171 345.590, 102.031 375.195, 102.197 409.045 C 102.479 466.384, 102.623 470.778, 104.304 473.343 C 105.297 474.857, 107.547 476.972, 109.304 478.044 C 112.446 479.959, 116.155 479.993, 327.282 479.996 C 511.954 479.999, 542.547 479.798, 545.510 478.560 C 547.406 477.768, 549.864 475.631, 550.974 473.810 C 552.942 470.582, 552.993 468.926, 552.996 407.250 L 553 344 427 344 L 301 344 301 337.500 L 301 331 206.750 331.063 C 154.912 331.098, 111.563 331.506, 110.418 331.969 M 571.785 409.145 C 571.505 473.413, 571.465 474.575, 569.374 479 C 568.205 481.475, 565.449 485.529, 563.251 488.009 C 561.052 490.490, 557.059 493.640, 554.377 495.009 C 549.500 497.500, 549.500 497.500, 409.750 497.760 L 270 498.021 270 689.542 C 270 853.964, 270.204 881.552, 271.440 884.510 C 272.232 886.406, 274.369 888.864, 276.190 889.974 C 278.967 891.667, 281.232 891.993, 290.250 891.996 L 301 892 301 710.500 L 301 529 439.971 529 C 578.943 529, 578.943 529, 584.221 526.650 C 587.302 525.278, 591.408 522.247, 594.083 519.371 C 596.603 516.661, 599.528 512.206, 600.583 509.472 C 602.405 504.747, 602.500 501.129, 602.500 436.500 C 602.500 368.500, 602.500 368.500, 599.909 363 C 598.484 359.975, 595.559 355.761, 593.409 353.634 C 591.259 351.508, 587.250 348.727, 584.500 347.453 C 581.750 346.179, 577.828 344.834, 575.785 344.464 L 572.069 343.790 571.785 409.145 M 263.500 367.341 C 261.300 368.072, 257.677 369.608, 255.449 370.754 C 253.220 371.900, 249.469 374.766, 247.112 377.123 C 244.755 379.480, 241.802 383.454, 240.550 385.954 C 239.298 388.454, 237.707 392.906, 237.014 395.847 C 236.277 398.973, 235.958 404.372, 236.244 408.847 C 236.523 413.206, 237.683 418.973, 238.938 422.247 C 240.254 425.680, 243.157 430.199, 246.149 433.473 C 249.429 437.061, 253.452 440.081, 257.811 442.226 C 264.160 445.350, 264.992 445.500, 275.982 445.500 C 286.829 445.500, 287.879 445.318, 294 442.375 C 297.575 440.656, 302.415 437.321, 304.755 434.964 C 307.096 432.607, 310.142 428.365, 311.525 425.538 C 312.908 422.711, 314.478 417.721, 315.014 414.449 C 315.550 411.177, 315.991 406.813, 315.994 404.750 L 316 401 296 401 L 276 401 276 409 L 276 417 284.067 417 C 291.965 417, 292.121 417.047, 291.466 419.250 C 291.098 420.488, 289.499 422.835, 287.913 424.467 C 285.366 427.086, 284.211 427.479, 278.042 427.828 C 271.915 428.174, 270.510 427.903, 266.624 425.625 C 263.477 423.782, 261.527 421.655, 259.900 418.293 C 258.240 414.864, 257.601 411.755, 257.584 407.028 C 257.571 403.438, 258.148 398.801, 258.866 396.725 C 259.584 394.648, 261.350 391.549, 262.789 389.839 C 264.229 388.128, 266.876 386.114, 268.671 385.364 C 270.467 384.614, 273.998 384, 276.518 384 C 279.038 384, 282.373 384.659, 283.931 385.464 C 285.488 386.269, 287.897 388.278, 289.285 389.927 C 290.673 391.577, 291.976 393.428, 292.181 394.042 C 292.421 394.762, 295.354 394.044, 300.456 392.017 C 304.803 390.290, 309.161 388.449, 310.139 387.926 C 311.826 387.023, 311.813 386.798, 309.887 383.533 C 308.770 381.640, 306.050 378.285, 303.842 376.077 C 301.634 373.869, 297.333 370.842, 294.284 369.351 C 289.514 367.017, 287.261 366.595, 278.121 366.325 C 271.159 366.119, 266.122 366.469, 263.500 367.341 M 354.746 367.025 C 352.681 367.545, 348.685 369.139, 345.865 370.568 C 343.046 371.997, 338.633 375.272, 336.059 377.846 C 333.485 380.420, 330.163 385.010, 328.678 388.048 C 327.192 391.085, 325.483 396.366, 324.881 399.785 C 324.088 404.287, 324.088 407.713, 324.881 412.215 C 325.483 415.634, 327.192 420.915, 328.678 423.952 C 330.163 426.990, 333.481 431.577, 336.051 434.146 C 338.620 436.716, 342.698 439.827, 345.111 441.061 C 347.525 442.295, 351.750 443.906, 354.500 444.641 C 357.250 445.375, 362.715 445.982, 366.645 445.988 C 370.967 445.995, 376.316 445.220, 380.187 444.024 C 383.706 442.937, 388.713 440.638, 391.315 438.915 C 393.916 437.192, 397.556 433.918, 399.402 431.641 C 401.248 429.363, 403.690 425.650, 404.829 423.389 C 405.968 421.127, 407.450 416.290, 408.123 412.639 C 409.091 407.383, 409.087 404.596, 408.104 399.261 C 407.421 395.554, 405.480 389.928, 403.791 386.759 C 402.101 383.589, 398.726 379.158, 396.289 376.912 C 393.853 374.667, 388.892 371.440, 385.265 369.743 C 379.490 367.041, 377.417 366.621, 368.585 366.368 C 363.038 366.209, 356.811 366.504, 354.746 367.025 M 147 405.965 L 147 444 156.981 444 L 166.962 444 167.231 421.479 L 167.500 398.958 185 421.437 L 202.500 443.917 212.750 443.958 L 223 444 223 406 L 223 368 213.019 368 L 203.038 368 202.769 390.534 L 202.500 413.068 184.980 390.784 L 167.459 368.500 157.230 368.215 L 147 367.930 147 405.965 M 420 406 L 420 444 430.500 444 L 441 444 441 431.500 L 441 419 449.318 419 C 453.894 419, 459.856 418.339, 462.568 417.532 C 465.281 416.724, 468.986 414.703, 470.803 413.040 C 472.619 411.377, 475.068 407.876, 476.245 405.258 C 477.763 401.883, 478.394 398.455, 478.415 393.464 C 478.439 387.815, 477.914 385.344, 475.751 380.924 C 474.270 377.896, 471.678 374.399, 469.992 373.152 C 468.305 371.905, 465.086 370.236, 462.837 369.442 C 459.815 368.376, 453.696 368, 439.374 368 L 420 368 420 406 M 489 406 L 489 444 499 444 L 509 444 509 406 L 509 368 499 368 L 489 368 489 406 M 441 393.168 L 441 402 446.826 402 C 451.622 402, 453.035 401.591, 454.826 399.686 C 456.312 398.103, 457 396.102, 457 393.360 C 457 390.477, 456.367 388.770, 454.750 387.290 C 453.205 385.876, 450.699 385.090, 446.750 384.783 L 441 384.335 441 393.168 M 357.500 387.662 C 355.850 388.531, 353.444 390.201, 352.153 391.372 C 350.862 392.542, 348.949 395.170, 347.903 397.210 C 346.768 399.423, 346 402.974, 346 406.010 C 346 408.809, 346.728 412.539, 347.617 414.300 C 348.506 416.060, 350.194 418.556, 351.367 419.847 C 352.540 421.138, 355.170 423.051, 357.210 424.097 C 359.615 425.330, 362.958 425.994, 366.710 425.984 C 370.847 425.972, 373.615 425.329, 376.405 423.734 C 378.553 422.505, 381.655 419.830, 383.298 417.789 C 385.435 415.136, 386.422 412.659, 386.765 409.096 C 387.028 406.355, 386.942 402.502, 386.573 400.535 C 386.203 398.567, 384.504 395.365, 382.795 393.420 C 381.087 391.474, 377.977 389.009, 375.885 387.941 C 373.371 386.659, 370.114 386.014, 366.290 386.040 C 363.017 386.063, 359.196 386.768, 357.500 387.662 M 147.323 498.750 C 165.375 498.902, 194.625 498.902, 212.323 498.749 C 230.020 498.596, 215.250 498.471, 179.500 498.472 C 143.750 498.472, 129.270 498.597, 147.323 498.750 M 250.748 553 C 250.335 554.375, 236.947 612.111, 220.998 681.301 C 205.049 750.492, 192.002 808.767, 192.004 810.801 C 192.006 812.836, 192.905 815.972, 194.001 817.770 C 195.098 819.569, 197.009 821.496, 198.248 822.053 C 199.486 822.609, 211.750 825.684, 225.500 828.885 C 239.250 832.086, 250.839 834.410, 251.253 834.049 C 251.668 833.688, 251.893 769.742, 251.753 691.947 C 251.614 614.151, 251.162 551.625, 250.748 553 M 693.987 623.059 C 689.869 631.372, 686.184 638.372, 685.798 638.616 C 685.411 638.860, 683.037 637.488, 680.522 635.568 C 678.006 633.648, 672.986 630.664, 669.365 628.936 C 665.744 627.208, 659.175 625.083, 654.768 624.215 C 648.300 622.941, 645.521 622.847, 640.364 623.730 C 636.850 624.332, 631.927 626.025, 629.425 627.491 C 626.922 628.958, 624.004 631.585, 622.940 633.329 C 621.876 635.073, 620.729 637.962, 620.392 639.750 C 620.054 641.538, 620.070 644.562, 620.428 646.471 C 620.787 648.379, 622.164 651.229, 623.488 652.804 C 624.813 654.378, 628.733 657.178, 632.199 659.025 C 635.664 660.873, 641.625 663.339, 645.445 664.505 C 652.390 666.626, 652.390 666.626, 655.438 663.154 C 657.114 661.245, 660.739 658.634, 663.493 657.351 C 667.503 655.484, 670.206 655.018, 677.068 655.010 C 682.068 655.004, 687.899 655.672, 691.067 656.612 C 694.053 657.499, 699.422 659.713, 702.998 661.532 C 706.574 663.350, 711.051 666.001, 712.948 667.421 C 714.844 668.842, 716.726 669.666, 717.130 669.252 C 717.535 668.839, 723.071 658.325, 729.433 645.888 C 735.795 633.452, 741 623.052, 741 622.777 C 741 622.503, 737.359 620.614, 732.910 618.580 C 728.460 616.546, 720.923 613.614, 716.160 612.064 C 711.397 610.514, 706.144 608.953, 704.487 608.596 C 701.474 607.945, 701.474 607.945, 693.987 623.059 M 507 683.412 C 507 744.074, 506.743 758.185, 505.518 764.662 C 504.625 769.385, 502.403 775.813, 499.926 780.838 C 496.762 787.256, 493.937 791.076, 487.658 797.423 C 480.929 804.224, 477.835 806.491, 470 810.357 C 464.775 812.935, 457.350 815.954, 453.500 817.065 C 449.650 818.177, 441.756 819.355, 435.958 819.682 C 429.516 820.046, 422.766 819.816, 418.603 819.091 C 414.855 818.439, 409.758 817.215, 407.275 816.372 C 404.170 815.318, 402.438 815.162, 401.728 815.872 C 401.018 816.582, 402.499 819.109, 406.471 823.964 C 409.647 827.847, 415.005 833.219, 418.377 835.902 C 421.748 838.585, 427.205 842.142, 430.503 843.807 C 433.802 845.472, 439.200 847.659, 442.500 848.667 C 447.182 850.097, 451.685 850.490, 463 850.452 C 473.743 850.417, 479.184 849.940, 483.998 848.611 C 487.571 847.624, 493.173 845.690, 496.446 844.312 C 499.719 842.935, 504.848 840.240, 507.843 838.324 C 510.838 836.408, 515.672 832.586, 518.585 829.832 C 521.497 827.077, 525.737 821.973, 528.006 818.490 C 530.276 815.007, 533 809.874, 534.060 807.084 C 535.120 804.293, 536.656 798.178, 537.473 793.494 C 538.708 786.410, 538.963 770.273, 538.989 697.489 L 539.020 610 523.010 610 L 507 610 507 683.412 M 592 708.521 C 592 708.926, 593.354 711.623, 595.009 714.516 C 596.664 717.408, 601.071 722.655, 604.804 726.176 C 608.536 729.697, 614.044 733.961, 617.045 735.651 C 620.045 737.342, 627.675 740.617, 634 742.930 C 640.325 745.242, 647.250 747.767, 649.388 748.541 C 651.526 749.314, 653.664 749.708, 654.138 749.415 C 654.612 749.122, 654.997 747.671, 654.994 746.191 C 654.991 744.711, 654.517 741.800, 653.940 739.723 C 653.363 737.645, 651.527 734.392, 649.860 732.493 C 648.193 730.595, 644.055 727.679, 640.664 726.013 C 637.274 724.348, 625.725 719.899, 615 716.126 C 604.275 712.353, 594.712 708.934, 593.750 708.526 C 592.788 708.119, 592 708.117, 592 708.521 M 715.329 712.416 C 715.677 713.322, 716.733 716.862, 717.675 720.282 C 718.932 724.848, 719.372 730.221, 719.330 740.500 C 719.285 751.467, 718.816 756.189, 717.165 762.296 C 716.006 766.584, 713.674 772.993, 711.981 776.540 C 710.289 780.086, 706.788 785.604, 704.202 788.802 C 701.616 792, 697.700 796.201, 695.500 798.138 C 693.300 800.074, 689.374 803.099, 686.776 804.860 C 684.178 806.620, 679.143 809.365, 675.588 810.961 C 672.033 812.556, 665.834 814.768, 661.812 815.876 C 657.790 816.985, 650.980 818.366, 646.678 818.946 C 642.375 819.526, 634.264 820, 628.651 820 C 623.039 820, 614.739 819.535, 610.205 818.967 C 605.672 818.398, 597.814 816.855, 592.743 815.538 C 587.672 814.221, 583.484 813.224, 583.437 813.322 C 583.390 813.420, 581.936 816.056, 580.207 819.180 L 577.062 824.860 583.312 828.807 C 586.749 830.978, 592.732 834.351, 596.607 836.302 C 600.482 838.253, 608.130 841.409, 613.603 843.314 C 619.076 845.219, 627.367 847.609, 632.027 848.625 C 638.736 850.088, 644.664 850.464, 660.500 850.433 C 678.050 850.399, 681.585 850.113, 689.357 848.096 C 694.229 846.832, 701.352 844.504, 705.187 842.923 C 709.022 841.342, 715.252 837.991, 719.033 835.478 C 722.814 832.965, 728.672 827.892, 732.052 824.204 C 736.170 819.711, 739.623 814.531, 742.521 808.500 C 744.899 803.550, 747.659 795.900, 748.654 791.500 C 749.917 785.911, 750.434 779.732, 750.371 771 C 750.302 761.589, 749.751 756.548, 748.142 750.601 C 746.967 746.257, 744.459 739.957, 742.569 736.601 C 740.678 733.246, 736.064 727.562, 732.316 723.970 C 728.567 720.379, 724.150 716.515, 722.500 715.383 C 720.850 714.251, 718.419 712.750, 717.098 712.046 C 714.983 710.920, 714.772 710.964, 715.329 712.416 M 640.500 924.537 C 641.050 924.745, 657.229 928.535, 676.454 932.958 C 695.678 937.381, 712.778 940.998, 714.454 940.996 C 716.129 940.994, 718.941 940.114, 720.701 939.040 C 722.462 937.967, 724.540 935.831, 725.318 934.294 C 726.096 932.757, 727.038 929.813, 727.412 927.750 L 728.091 924 683.795 924.079 C 659.433 924.122, 639.950 924.328, 640.500 924.537" stroke="none" fill="#ffffff" fill-rule="evenodd"/><path d="M 362.149 43.482 C 358.657 45.317, 354.469 48.093, 352.844 49.650 C 351.218 51.207, 348.597 55.185, 347.019 58.490 C 345.440 61.796, 342.921 70.237, 341.421 77.250 L 338.694 90 307.097 90.010 C 275.837 90.019, 275.445 90.045, 270.336 92.424 C 267.495 93.747, 263.287 96.713, 260.984 99.016 C 258.680 101.320, 255.604 105.746, 254.148 108.852 C 251.500 114.500, 251.500 114.500, 251.500 213 L 251.500 311.500 180 312 C 108.500 312.500, 108.500 312.500, 102.845 315.151 C 99.734 316.610, 95.374 319.673, 93.156 321.959 C 90.938 324.244, 88.083 328.226, 86.812 330.807 C 84.500 335.500, 84.500 335.500, 84.500 405.500 C 84.500 475.500, 84.500 475.500, 86.813 480.195 C 88.084 482.777, 91.009 486.782, 93.313 489.096 C 95.616 491.409, 99.750 494.354, 102.500 495.641 C 107.500 497.980, 107.500 497.980, 175.750 497.990 C 213.288 497.996, 244 498.232, 244 498.516 C 244 498.800, 228.025 568.197, 208.500 652.732 C 188.407 739.724, 173 808.492, 173 811.178 C 173 813.789, 173.915 818.371, 175.033 821.360 C 176.152 824.349, 178.909 828.887, 181.160 831.444 C 183.411 834.002, 187.334 837.140, 189.877 838.419 C 192.419 839.697, 202.600 842.624, 212.500 844.924 C 222.400 847.224, 235.225 850.221, 241 851.585 L 251.500 854.065 251.541 869.783 C 251.579 884.490, 251.746 885.857, 254.142 891.046 C 255.550 894.096, 258.147 898.237, 259.914 900.249 C 261.680 902.260, 265.869 905.277, 269.222 906.953 C 275.319 910, 275.319 910, 543.045 910 C 791.202 910, 811.151 909.877, 815.980 908.317 C 819.121 907.303, 823.160 904.864, 826.150 902.175 C 828.878 899.722, 832.323 895.417, 833.805 892.608 C 836.500 887.500, 836.500 887.500, 836.756 568.352 L 837.012 249.203 781.504 194.437 C 750.975 164.315, 726.110 139.563, 726.248 139.431 C 726.387 139.299, 763.400 147.714, 808.500 158.130 C 889.578 176.857, 890.537 177.107, 893.824 180.375 C 896.102 182.641, 897.303 184.911, 897.643 187.590 C 898.006 190.450, 891.806 218.854, 874.558 293.344 L 850.977 395.187 851.239 434.477 L 851.500 473.766 883.809 333.633 C 906.587 234.835, 916.100 191.851, 916.059 187.910 C 916.015 183.767, 915.214 180.746, 912.964 176.243 C 911.294 172.901, 908.086 168.504, 905.836 166.471 C 903.586 164.438, 899.866 161.943, 897.569 160.928 C 895.272 159.912, 850.217 149.129, 797.447 136.967 L 701.500 114.853 688.986 102.427 L 676.472 90 635.310 90 L 594.147 90 489.824 65.989 C 432.446 52.782, 384.719 41.532, 383.764 40.989 C 382.809 40.445, 378.984 40.033, 375.264 40.073 C 369.617 40.134, 367.451 40.697, 362.149 43.482 M 366.482 62.250 C 363.444 65.081, 362.670 66.854, 360.486 76 C 359.106 81.775, 357.800 87.287, 357.583 88.250 C 357.209 89.905, 361.354 89.996, 434.344 89.921 C 476.780 89.878, 511.050 89.663, 510.500 89.444 C 509.950 89.225, 480.128 82.286, 444.229 74.023 C 408.330 65.760, 376.936 59, 374.464 59 C 370.777 59, 369.345 59.583, 366.482 62.250 M 273.882 111.882 L 270 115.765 270 214.382 L 270 313 407.385 313 C 534.111 313, 545.187 313.132, 550.135 314.706 C 554.176 315.991, 557 317.903, 561.579 322.456 C 565.862 326.715, 568.151 329.955, 569.329 333.428 C 570.825 337.840, 571 345.389, 571 405.500 C 571 465.611, 570.825 473.160, 569.329 477.572 C 568.151 481.045, 565.862 484.285, 561.579 488.544 C 557 493.097, 554.176 495.009, 550.135 496.294 C 545.187 497.868, 534.111 498, 407.385 498 L 270 498 270 691.118 L 270 884.235 273.750 887.962 C 277.500 891.689, 277.500 891.689, 295 892.342 C 304.625 892.700, 423.875 892.985, 560 892.975 C 802.978 892.956, 807.578 892.921, 811.784 891.012 C 815.054 889.528, 816.528 888.054, 818.012 884.784 C 819.924 880.571, 819.956 875.409, 819.978 573.776 L 820 267.052 750.250 266.776 C 681.408 266.504, 680.440 266.472, 675.878 264.363 C 673.335 263.187, 669.411 260.559, 667.157 258.523 C 664.904 256.487, 661.809 252.274, 660.280 249.161 C 657.500 243.500, 657.500 243.500, 657.223 175.750 L 656.946 108 467.355 108 L 277.765 108 273.882 111.882 M 675 177.272 L 675 241.029 678.423 244.765 L 681.846 248.500 746.721 248.771 L 811.596 249.042 768.048 205.775 C 744.097 181.978, 713.362 151.485, 699.750 138.012 L 675 113.515 675 177.272 M 337.789 172.058 C 336.849 172.607, 335.614 174.730, 335.045 176.778 C 334.476 178.825, 334.009 184.865, 334.006 190.200 C 334.001 197.293, 333.636 200.116, 332.646 200.700 C 331.901 201.140, 331.060 202.753, 330.778 204.285 C 330.410 206.279, 330.760 207.337, 332.010 208.005 C 333.494 208.799, 333.820 210.846, 334.178 221.599 C 334.589 233.944, 334.668 234.318, 337.355 236.629 C 338.906 237.963, 341.400 239, 343.056 239 C 345.754 239, 346 238.707, 346 235.500 C 346 232.733, 345.604 232, 344.107 232 C 343.066 232, 341.941 231.288, 341.607 230.418 C 341.273 229.548, 341 224.473, 341 219.141 C 341 211.905, 340.597 208.870, 339.413 207.180 C 338.079 205.275, 338.039 204.658, 339.163 203.309 C 340.034 202.263, 340.674 197.659, 341 190.102 C 341.467 179.265, 341.648 178.435, 343.750 177.513 C 345.302 176.832, 346 175.669, 346 173.763 C 346 171.306, 345.640 171.003, 342.750 171.030 C 340.962 171.047, 338.730 171.510, 337.789 172.058 M 409 174 C 409 175.968, 409.504 177, 410.465 177 C 411.270 177, 412.395 177.870, 412.965 178.934 C 413.534 179.998, 414 185.298, 414 190.712 C 414 198.115, 414.396 201.121, 415.600 202.839 C 417.066 204.932, 417.066 205.270, 415.600 206.890 C 414.364 208.255, 414 210.873, 414 218.394 C 414 223.750, 413.534 229.002, 412.965 230.066 C 412.395 231.130, 411.322 232, 410.578 232 C 409.835 232, 409.028 233.353, 408.786 235.006 C 408.543 236.659, 408.567 238.234, 408.839 238.506 C 409.111 238.778, 410.629 239, 412.212 239 C 413.935 239, 416.076 238.015, 417.545 236.545 C 419.852 234.239, 420 233.431, 420 223.180 C 420 213.784, 420.278 211.917, 422 209.727 C 423.100 208.329, 424 206.088, 424 204.747 C 424 203.407, 423.100 201.495, 422 200.500 C 420.214 198.884, 420 197.420, 420 186.845 C 420 176.333, 419.775 174.775, 418 173 C 416.762 171.762, 414.667 171, 412.500 171 C 409.278 171, 409 171.238, 409 174 M 356.596 218.306 C 355.523 219.091, 354.948 220.546, 355.155 221.954 C 355.345 223.242, 356.288 224.789, 357.250 225.393 C 358.520 226.189, 359.480 226.189, 360.750 225.393 C 361.712 224.789, 362.636 223.385, 362.803 222.273 C 362.970 221.160, 362.375 219.518, 361.482 218.625 C 360.588 217.731, 359.525 217, 359.120 217 C 358.714 217, 357.579 217.588, 356.596 218.306 M 374.518 218.625 C 373.625 219.518, 373.030 221.160, 373.197 222.273 C 373.364 223.385, 374.288 224.789, 375.250 225.393 C 376.520 226.189, 377.480 226.189, 378.750 225.393 C 379.712 224.789, 380.647 223.304, 380.827 222.093 C 381.006 220.881, 380.614 219.240, 379.954 218.445 C 379.295 217.650, 378.167 217, 377.449 217 C 376.731 217, 375.412 217.731, 374.518 218.625 M 393.496 219.004 C 391.998 220.660, 391.880 221.442, 392.820 223.504 C 393.445 224.877, 394.777 226, 395.779 226 C 396.780 226, 398.140 225.460, 398.800 224.800 C 399.460 224.140, 400 222.655, 400 221.500 C 400 220.345, 399.460 218.860, 398.800 218.200 C 398.140 217.540, 397.085 217, 396.455 217 C 395.825 217, 394.494 217.902, 393.496 219.004 M 207 330.980 C 129.886 331.396, 110.037 331.764, 108.196 332.814 C 106.930 333.536, 105.019 335.561, 103.950 337.314 C 102.079 340.382, 102.007 342.898, 102.007 405.500 C 102.007 468.208, 102.076 470.613, 103.960 473.701 C 105.033 475.462, 107.259 477.600, 108.906 478.451 C 111.583 479.836, 134.861 480, 328.046 480 C 531.063 480, 544.369 479.895, 547.117 478.272 C 548.726 477.321, 550.933 474.704, 552.021 472.456 C 553.929 468.516, 554 466.100, 554 405.500 C 554 344.900, 553.929 342.484, 552.021 338.544 C 550.933 336.296, 548.570 333.566, 546.771 332.478 C 543.561 330.537, 541.271 330.500, 423.500 330.480 C 357.500 330.470, 260.075 330.695, 207 330.980 M 267 367.033 C 264.525 367.552, 259.736 369.336, 256.358 370.998 C 252.979 372.660, 248.540 375.874, 246.493 378.140 C 244.445 380.406, 241.709 384.578, 240.412 387.411 C 239.115 390.244, 237.626 395.586, 237.102 399.281 C 236.503 403.511, 236.501 408.501, 237.095 412.750 C 237.614 416.462, 239.231 421.950, 240.689 424.946 C 242.146 427.941, 245.311 432.364, 247.723 434.775 C 250.134 437.187, 254.521 440.265, 257.471 441.615 C 260.421 442.966, 265.591 444.556, 268.960 445.150 C 273.300 445.914, 277.162 445.921, 282.204 445.172 C 286.285 444.567, 292.009 442.793, 295.619 441.016 C 299.223 439.242, 303.484 436.117, 305.583 433.708 C 307.599 431.394, 310.378 427.079, 311.758 424.120 C 313.603 420.160, 314.396 416.463, 314.759 410.120 L 315.251 401.500 296.126 401.792 L 277 402.084 277 409.542 L 277 417 284.948 417 C 292.896 417, 292.896 417, 291.839 420.032 C 291.258 421.700, 289.306 424.190, 287.502 425.566 C 285.489 427.102, 282.301 428.295, 279.249 428.657 C 276.345 429.001, 272.726 428.735, 270.552 428.017 C 268.504 427.341, 265.321 425.465, 263.479 423.848 C 261.431 422.049, 259.473 418.931, 258.440 415.820 C 257.244 412.218, 256.892 408.749, 257.236 403.941 C 257.587 399.042, 258.455 395.899, 260.352 392.662 C 261.799 390.194, 264.674 387.125, 266.741 385.843 C 269.597 384.072, 271.961 383.510, 276.578 383.506 C 281.726 383.501, 283.228 383.936, 286.396 386.353 C 288.454 387.922, 290.628 390.285, 291.229 391.603 C 291.830 392.921, 292.867 394, 293.533 394 C 294.200 394, 296.715 393.141, 299.123 392.091 C 301.530 391.041, 305.221 389.475, 307.325 388.611 C 311.150 387.039, 311.150 387.039, 308.825 382.890 C 307.546 380.608, 304.541 377.014, 302.147 374.904 C 299.753 372.793, 295.297 370.132, 292.244 368.990 C 289.134 367.826, 283.356 366.733, 279.097 366.502 C 274.919 366.275, 269.475 366.514, 267 367.033 M 357 367.098 C 354.525 367.581, 349.753 369.328, 346.395 370.980 C 342.876 372.711, 338.293 376.118, 335.575 379.023 C 332.982 381.796, 329.654 386.637, 328.180 389.782 C 325.807 394.846, 325.500 396.701, 325.500 406 C 325.500 415.800, 325.715 416.939, 328.724 423.089 C 330.692 427.110, 333.920 431.522, 337.006 434.409 C 339.788 437.011, 344.537 440.272, 347.560 441.656 C 350.582 443.040, 356.130 444.628, 359.888 445.186 C 364.602 445.886, 368.843 445.869, 373.571 445.133 C 377.339 444.547, 383.187 442.706, 386.566 441.042 C 390.119 439.293, 394.698 435.892, 397.425 432.977 C 400.018 430.204, 403.346 425.363, 404.820 422.218 C 407.193 417.154, 407.500 415.299, 407.500 406 C 407.500 396.701, 407.193 394.846, 404.820 389.782 C 403.346 386.637, 400.018 381.796, 397.425 379.023 C 394.687 376.096, 390.150 372.731, 386.605 370.997 C 383.247 369.354, 378.076 367.558, 375.114 367.005 C 372.151 366.452, 367.876 366.049, 365.614 366.110 C 363.351 366.170, 359.475 366.615, 357 367.098 M 147.456 369.254 C 147.191 369.944, 147.093 386.932, 147.237 407.004 L 147.500 443.500 157.231 443.786 L 166.963 444.072 167.231 421.195 L 167.500 398.317 185.434 421.193 L 203.369 444.068 212.934 443.784 L 222.500 443.500 222.500 406 L 222.500 368.500 213 368.500 L 203.500 368.500 203 391.179 L 202.500 413.859 184.573 390.929 L 166.647 368 157.292 368 C 150.713 368, 147.794 368.372, 147.456 369.254 M 421 406 L 421 444 430.500 444 L 440 444 440 431.500 L 440 419 447.290 419 C 451.299 419, 457.244 418.306, 460.501 417.458 C 463.758 416.610, 467.906 414.783, 469.720 413.400 C 471.534 412.016, 474.024 408.998, 475.252 406.692 C 477.085 403.251, 477.487 400.887, 477.493 393.500 C 477.499 385.747, 477.154 383.883, 475 380.044 C 473.625 377.594, 470.700 374.335, 468.500 372.801 C 466.300 371.268, 462.076 369.561, 459.114 369.007 C 456.151 368.453, 446.363 368, 437.364 368 L 421 368 421 406 M 489.702 368.632 C 489.316 369.018, 489 386.133, 489 406.667 L 489 444 499.012 444 L 509.024 444 508.762 406.250 L 508.500 368.500 499.452 368.215 C 494.475 368.058, 490.087 368.246, 489.702 368.632 M 440 393.500 L 440 403.233 446.521 402.818 C 451.576 402.496, 453.543 401.901, 455.271 400.173 C 456.908 398.537, 457.500 396.763, 457.500 393.500 C 457.500 390.237, 456.908 388.463, 455.271 386.827 C 453.543 385.099, 451.576 384.504, 446.521 384.182 L 440 383.767 440 393.500 M 357.500 387.368 C 354.750 388.660, 351.737 390.576, 350.805 391.626 C 349.873 392.677, 348.195 395.553, 347.077 398.018 C 345.959 400.483, 345.034 404.107, 345.022 406.071 C 345.010 408.035, 346.238 412.084, 347.750 415.070 C 349.349 418.226, 351.923 421.441, 353.901 422.751 C 355.772 423.990, 359.128 425.496, 361.359 426.097 C 363.590 426.698, 367.164 426.910, 369.300 426.568 C 371.436 426.226, 374.916 425.063, 377.034 423.983 C 379.152 422.902, 382.009 420.544, 383.384 418.741 C 384.759 416.939, 386.453 413.334, 387.149 410.732 C 388.170 406.915, 388.170 405.085, 387.149 401.268 C 386.453 398.666, 384.725 395.017, 383.309 393.160 C 381.893 391.304, 378.431 388.713, 375.617 387.402 C 372.803 386.092, 368.700 385.020, 366.500 385.020 C 364.300 385.020, 360.250 386.076, 357.500 387.368 M 250.644 551 C 250.173 552.925, 236.560 611.790, 220.394 681.811 C 204.227 751.832, 191 810.013, 191 811.101 C 191 812.189, 191.878 814.800, 192.950 816.902 C 194.116 819.187, 196.228 821.343, 198.200 822.262 C 200.015 823.108, 212.663 826.369, 226.307 829.510 C 239.950 832.651, 251.314 835.019, 251.560 834.773 C 251.806 834.528, 251.893 769.791, 251.753 690.913 C 251.608 608.722, 251.135 548.994, 250.644 551 M 620.466 573.375 C 616.048 574.101, 609.973 575.495, 606.966 576.472 C 603.960 577.449, 597.900 580.075, 593.500 582.307 C 587.405 585.399, 583.473 588.405, 576.987 594.932 C 570.715 601.244, 567.485 605.475, 564.718 611 C 562.652 615.125, 560.027 621.650, 558.886 625.500 C 557.450 630.346, 556.657 636.500, 556.311 645.500 C 555.944 655.051, 556.222 660.432, 557.358 665.781 C 558.209 669.786, 560.384 676.086, 562.191 679.781 C 564.387 684.273, 567.840 688.877, 572.609 693.669 C 578.478 699.568, 581.580 701.724, 590.121 705.836 C 595.829 708.585, 608.600 713.630, 618.500 717.046 C 628.400 720.462, 638.300 724.164, 640.500 725.273 C 642.700 726.381, 645.992 728.425, 647.816 729.813 C 649.640 731.202, 652.050 734.137, 653.172 736.337 C 654.770 739.469, 655.125 741.703, 654.810 746.647 C 654.492 751.642, 653.783 753.847, 651.415 757.217 C 649.452 760.010, 646.443 762.488, 642.666 764.419 C 638.037 766.786, 635.301 767.443, 628.704 767.771 C 623.537 768.028, 617.755 767.598, 613.087 766.609 C 609.009 765.746, 601.584 763.031, 596.587 760.577 C 591.589 758.122, 584.208 753.614, 580.184 750.557 C 576.160 747.501, 572.448 745, 571.934 745 C 571.420 745, 570.995 745.337, 570.989 745.750 C 570.983 746.163, 565.424 756.953, 558.637 769.729 C 547.563 790.574, 546.461 793.098, 547.898 794.320 C 548.779 795.070, 552.288 797.347, 555.696 799.381 C 559.104 801.415, 565.674 804.827, 570.295 806.962 C 574.916 809.097, 582.478 811.990, 587.099 813.392 C 591.719 814.794, 599.775 816.700, 605 817.629 C 610.917 818.680, 619.780 819.317, 628.500 819.317 C 637.122 819.317, 646.032 818.683, 651.695 817.668 C 656.752 816.761, 664.601 814.665, 669.137 813.009 C 673.674 811.354, 680.336 808.229, 683.943 806.065 C 687.549 803.901, 692.868 800.036, 695.763 797.477 C 698.657 794.917, 703.036 790.005, 705.494 786.561 C 707.951 783.118, 711.284 777.191, 712.901 773.391 C 714.518 769.591, 716.608 762.698, 717.545 758.073 C 718.837 751.700, 719.134 746.493, 718.772 736.581 C 718.380 725.878, 717.809 722.077, 715.628 715.672 C 714.162 711.367, 711.390 705.387, 709.469 702.384 C 707.547 699.380, 704.045 694.993, 701.686 692.633 C 699.327 690.274, 694.550 686.411, 691.072 684.049 C 687.594 681.687, 681.043 678.043, 676.515 675.951 C 671.987 673.859, 662.931 670.501, 656.391 668.489 C 649.851 666.476, 641.577 663.701, 638.004 662.321 C 634.432 660.941, 629.745 658.515, 627.590 656.930 C 625.435 655.345, 622.848 652.800, 621.842 651.274 C 620.651 649.467, 620.011 646.648, 620.007 643.184 C 620.003 640.261, 620.504 636.886, 621.120 635.684 C 621.736 634.483, 623.625 632.036, 625.319 630.248 C 627.012 628.459, 630.800 626.096, 633.736 624.998 C 637.296 623.666, 641.526 623, 646.432 623 C 651.087 623, 656.308 623.775, 660.645 625.111 C 664.415 626.272, 668.850 627.902, 670.500 628.733 C 672.150 629.563, 676.146 632.032, 679.381 634.219 C 684.026 637.359, 685.454 637.911, 686.177 636.847 C 686.680 636.106, 692.021 625.716, 698.046 613.759 C 704.071 601.801, 709 591.624, 709 591.143 C 709 590.661, 705.737 588.808, 701.750 587.024 C 697.763 585.240, 689.843 582.222, 684.151 580.316 C 678.459 578.410, 669.459 575.985, 664.151 574.925 C 658.843 573.866, 648.650 572.787, 641.500 572.527 C 633.211 572.225, 625.589 572.533, 620.466 573.375 M 445.782 665.750 C 445.516 747.672, 445.397 752.736, 443.647 756.737 C 442.627 759.068, 440.249 762.330, 438.362 763.987 C 435.387 766.599, 434.156 767, 429.113 767 C 424.718 767, 422.471 766.444, 419.922 764.726 C 418.066 763.476, 415.512 760.916, 414.247 759.039 C 412.982 757.162, 411.218 753.122, 410.327 750.063 L 408.706 744.500 388.942 764.941 L 369.177 785.381 373.620 791.156 C 376.064 794.333, 380.485 799.066, 383.445 801.675 C 386.404 804.285, 391.671 808.140, 395.148 810.242 C 398.625 812.344, 404.249 814.923, 407.647 815.973 C 411.044 817.022, 417.498 818.384, 421.988 818.998 C 428.054 819.829, 432.620 819.821, 439.759 818.969 C 445.042 818.338, 452.321 816.917, 455.933 815.811 C 459.545 814.705, 466.100 811.959, 470.500 809.708 C 476.514 806.631, 480.622 803.491, 487.049 797.058 C 493.077 791.024, 496.705 786.364, 499.350 781.257 C 501.413 777.274, 503.837 770.974, 504.737 767.257 C 506.174 761.319, 506.416 749.499, 506.735 669.750 L 507.098 579 476.580 579 L 446.063 579 445.782 665.750 M 557.500 924.537 C 558.050 924.746, 590.900 932.357, 630.500 941.450 C 670.100 950.544, 703.281 958.438, 704.236 958.992 C 705.191 959.546, 709.315 960, 713.400 960 C 719.750 960, 721.714 959.546, 726.934 956.875 C 730.437 955.082, 734.945 951.630, 737.510 948.778 C 740.618 945.321, 742.572 941.888, 743.925 937.509 C 744.994 934.045, 746.178 929.571, 746.554 927.566 C 747.237 923.922, 747.237 923.922, 737.977 924.211 C 728.717 924.500, 728.717 924.500, 727.538 929.151 C 726.890 931.710, 725.622 934.928, 724.721 936.303 C 723.820 937.678, 721.118 939.553, 718.716 940.471 C 714.349 942.138, 714.349 942.138, 674.970 933.069 L 635.591 924 596.046 924.079 C 574.296 924.122, 556.950 924.329, 557.500 924.537" stroke="none" fill="#333333" fill-rule="evenodd"/><path d="M 656.230 123.250 L 656 139 483.250 139.004 C 313.678 139.007, 310.441 139.043, 307.299 140.960 C 305.538 142.033, 303.400 144.259, 302.549 145.906 C 301.188 148.538, 301 158.779, 301 230.425 L 301 311.949 285.250 312.252 C 276.587 312.418, 331.436 312.655, 407.135 312.777 C 533.720 312.982, 545.201 313.137, 550.135 314.706 C 554.176 315.991, 557 317.903, 561.579 322.456 C 565.862 326.715, 568.151 329.955, 569.329 333.428 C 570.814 337.808, 571.027 345.766, 571.242 404.928 L 571.485 471.500 571.750 407.640 L 572.015 343.780 575.757 344.459 C 577.816 344.832, 581.750 346.179, 584.500 347.453 C 587.250 348.727, 591.259 351.508, 593.409 353.634 C 595.559 355.761, 598.484 359.975, 599.909 363 C 602.500 368.500, 602.500 368.500, 602.500 436.500 C 602.500 501.129, 602.405 504.747, 600.583 509.472 C 599.528 512.206, 596.603 516.661, 594.083 519.371 C 591.408 522.247, 587.302 525.278, 584.221 526.650 C 578.943 529, 578.943 529, 439.971 529 L 301 529 301 711 L 301 893 554.250 892.978 C 802.920 892.956, 807.577 892.921, 811.784 891.012 C 815.054 889.528, 816.528 888.054, 818.012 884.784 C 819.924 880.571, 819.956 875.409, 819.978 573.750 L 820 267 762.875 267 L 705.750 267 706.390 270.202 C 706.743 271.963, 708.036 274.496, 709.265 275.831 C 710.494 277.166, 712.948 278.875, 714.718 279.629 C 717.302 280.730, 727.893 281, 768.468 281 L 819 281 819 289.533 L 819 298.066 765.250 297.783 C 711.500 297.500, 711.500 297.500, 706.577 295.077 C 703.869 293.744, 699.951 290.951, 697.869 288.869 C 695.787 286.787, 693.139 283.234, 691.986 280.973 C 690.833 278.713, 689.633 274.694, 689.319 272.044 C 688.748 267.224, 688.748 267.224, 684.047 266.601 C 681.462 266.258, 677.048 264.832, 674.238 263.431 C 671.428 262.031, 667.475 259.054, 665.452 256.815 C 663.429 254.576, 660.813 250.665, 659.637 248.122 C 657.538 243.582, 657.491 242.291, 656.980 175.500 C 656.694 138.100, 656.356 114.588, 656.230 123.250 M 675 114.275 C 675 114.426, 678.487 117.914, 682.750 122.025 L 690.500 129.500 683.025 121.750 C 678.914 117.487, 675.426 114, 675.275 114 C 675.124 114, 675 114.124, 675 114.275 M 675 189.969 C 675 241.029, 675 241.029, 678.250 244.517 C 680.092 246.494, 682.887 248.271, 684.702 248.618 C 687.482 249.150, 687.980 248.919, 688.479 246.865 C 688.795 245.564, 688.929 220.875, 688.777 192 L 688.500 139.500 681.750 139.204 L 675 138.909 675 189.969 M 750.500 164 C 763.141 176.650, 773.709 187, 773.984 187 C 774.259 187, 764.141 176.650, 751.500 164 C 738.859 151.350, 728.291 141, 728.016 141 C 727.741 141, 737.859 151.350, 750.500 164 M 706 196.770 L 706 249 758.777 249 L 811.554 249 768.527 206.248 C 744.862 182.734, 721.112 159.230, 715.750 154.017 L 706 144.540 706 196.770 M 337.789 172.058 C 336.849 172.607, 335.614 174.730, 335.045 176.778 C 334.476 178.825, 334.009 184.865, 334.006 190.200 C 334.001 197.293, 333.636 200.116, 332.646 200.700 C 331.901 201.140, 331.060 202.753, 330.778 204.285 C 330.410 206.279, 330.760 207.337, 332.010 208.005 C 333.494 208.799, 333.820 210.846, 334.178 221.599 C 334.589 233.944, 334.668 234.318, 337.355 236.629 C 338.906 237.963, 341.400 239, 343.056 239 C 345.754 239, 346 238.707, 346 235.500 C 346 232.733, 345.604 232, 344.107 232 C 343.066 232, 341.941 231.288, 341.607 230.418 C 341.273 229.548, 341 224.473, 341 219.141 C 341 211.905, 340.597 208.870, 339.413 207.180 C 338.079 205.275, 338.039 204.658, 339.163 203.309 C 340.034 202.263, 340.674 197.659, 341 190.102 C 341.467 179.265, 341.648 178.435, 343.750 177.513 C 345.302 176.832, 346 175.669, 346 173.763 C 346 171.306, 345.640 171.003, 342.750 171.030 C 340.962 171.047, 338.730 171.510, 337.789 172.058 M 409 174 C 409 175.968, 409.504 177, 410.465 177 C 411.270 177, 412.395 177.870, 412.965 178.934 C 413.534 179.998, 414 185.298, 414 190.712 C 414 198.115, 414.396 201.121, 415.600 202.839 C 417.066 204.932, 417.066 205.270, 415.600 206.890 C 414.364 208.255, 414 210.873, 414 218.394 C 414 223.750, 413.534 229.002, 412.965 230.066 C 412.395 231.130, 411.322 232, 410.578 232 C 409.835 232, 409.028 233.353, 408.786 235.006 C 408.543 236.659, 408.567 238.234, 408.839 238.506 C 409.111 238.778, 410.629 239, 412.212 239 C 413.935 239, 416.076 238.015, 417.545 236.545 C 419.852 234.239, 420 233.431, 420 223.180 C 420 213.784, 420.278 211.917, 422 209.727 C 423.100 208.329, 424 206.088, 424 204.747 C 424 203.407, 423.100 201.495, 422 200.500 C 420.214 198.884, 420 197.420, 420 186.845 C 420 176.333, 419.775 174.775, 418 173 C 416.762 171.762, 414.667 171, 412.500 171 C 409.278 171, 409 171.238, 409 174 M 356.596 218.306 C 355.523 219.091, 354.948 220.546, 355.155 221.954 C 355.345 223.242, 356.288 224.789, 357.250 225.393 C 358.520 226.189, 359.480 226.189, 360.750 225.393 C 361.712 224.789, 362.636 223.385, 362.803 222.273 C 362.970 221.160, 362.375 219.518, 361.482 218.625 C 360.588 217.731, 359.525 217, 359.120 217 C 358.714 217, 357.579 217.588, 356.596 218.306 M 374.518 218.625 C 373.625 219.518, 373.030 221.160, 373.197 222.273 C 373.364 223.385, 374.288 224.789, 375.250 225.393 C 376.520 226.189, 377.480 226.189, 378.750 225.393 C 379.712 224.789, 380.647 223.304, 380.827 222.093 C 381.006 220.881, 380.614 219.240, 379.954 218.445 C 379.295 217.650, 378.167 217, 377.449 217 C 376.731 217, 375.412 217.731, 374.518 218.625 M 393.496 219.004 C 391.998 220.660, 391.880 221.442, 392.820 223.504 C 393.445 224.877, 394.777 226, 395.779 226 C 396.780 226, 398.140 225.460, 398.800 224.800 C 399.460 224.140, 400 222.655, 400 221.500 C 400 220.345, 399.460 218.860, 398.800 218.200 C 398.140 217.540, 397.085 217, 396.455 217 C 395.825 217, 394.494 217.902, 393.496 219.004 M 824.256 236.520 L 837.012 249.540 836.756 568.520 C 836.500 887.500, 836.500 887.500, 833.805 892.608 C 832.323 895.417, 828.878 899.722, 826.150 902.175 C 823.160 904.864, 819.121 907.303, 815.980 908.317 C 811.154 909.876, 792.010 910, 555.885 910 C 301 910, 301 910, 301 912.958 C 301 915.021, 302.163 917.138, 304.845 919.958 L 308.690 924 431.595 924.016 C 499.193 924.025, 619.298 924.030, 698.497 924.027 C 836.268 924.023, 842.599 923.944, 844.935 922.199 C 846.278 921.197, 848.192 919.279, 849.188 917.938 C 850.926 915.599, 851 904.857, 851.006 653.500 C 851.009 509.400, 851.009 370.462, 851.006 344.750 L 851 298 844.500 298 L 838 298 838 273.736 L 838 249.471 824.750 236.486 L 811.500 223.500 824.256 236.520 M 302.250 330.652 C 301.433 330.988, 301 333.391, 301 337.583 L 301 344 426.992 344 L 552.985 344 553.250 406.750 L 553.515 469.500 553.758 406.066 C 553.992 344.638, 553.937 342.502, 552.021 338.544 C 550.933 336.296, 548.570 333.566, 546.771 332.478 C 543.565 330.539, 541.122 330.496, 423.500 330.319 C 357.500 330.219, 302.938 330.369, 302.250 330.652 M 420.454 406 C 420.454 427.175, 420.587 435.838, 420.749 425.250 C 420.911 414.663, 420.911 397.338, 420.749 386.750 C 420.587 376.163, 420.454 384.825, 420.454 406 M 440.208 393.250 L 440 403 445.750 402.815 C 451.500 402.630, 451.500 402.630, 446.287 402.264 L 441.074 401.898 440.744 392.699 L 440.415 383.500 440.208 393.250 M 276.201 409.250 L 276.402 417.500 276.743 409.772 L 277.083 402.044 295.792 401.748 L 314.500 401.453 295.250 401.227 L 276 401 276.201 409.250 M 440.389 431.500 C 440.390 438.650, 440.550 441.444, 440.742 437.708 C 440.935 433.973, 440.934 428.123, 440.739 424.708 C 440.545 421.294, 440.387 424.350, 440.389 431.500 M 620.466 573.375 C 616.048 574.101, 609.973 575.495, 606.966 576.472 C 603.960 577.449, 597.900 580.075, 593.500 582.307 C 587.405 585.399, 583.473 588.405, 576.987 594.932 C 570.715 601.244, 567.485 605.475, 564.718 611 C 562.652 615.125, 560.027 621.650, 558.886 625.500 C 557.450 630.346, 556.657 636.500, 556.311 645.500 C 555.944 655.051, 556.222 660.432, 557.358 665.781 C 558.209 669.786, 560.384 676.086, 562.191 679.781 C 564.380 684.259, 567.815 688.844, 572.488 693.526 C 576.868 697.914, 582.005 701.845, 586.173 703.996 C 589.842 705.891, 592.625 707.798, 592.356 708.233 C 592.087 708.668, 593.251 711.443, 594.942 714.399 C 596.634 717.356, 601.071 722.655, 604.804 726.176 C 608.536 729.697, 614.044 733.961, 617.045 735.651 C 620.045 737.342, 627.675 740.617, 634 742.930 C 640.325 745.242, 647.250 747.767, 649.388 748.541 C 651.526 749.314, 653.712 749.678, 654.245 749.349 C 654.834 748.985, 654.945 749.682, 654.528 751.125 C 654.151 752.431, 652.623 755.294, 651.133 757.487 C 649.377 760.071, 646.395 762.512, 642.666 764.419 C 638.037 766.786, 635.301 767.443, 628.704 767.771 C 623.537 768.028, 617.755 767.598, 613.087 766.609 C 609.009 765.746, 601.584 763.031, 596.587 760.577 C 591.589 758.122, 584.208 753.614, 580.184 750.557 C 576.160 747.501, 572.448 745, 571.934 745 C 571.420 745, 570.995 745.337, 570.989 745.750 C 570.983 746.163, 565.424 756.953, 558.637 769.729 C 547.563 790.574, 546.461 793.098, 547.898 794.320 C 548.779 795.070, 552.387 797.407, 555.915 799.514 C 559.443 801.621, 566.643 805.290, 571.915 807.668 C 577.187 810.045, 582.104 811.992, 582.842 811.995 C 583.738 811.998, 583.007 814.140, 580.642 818.442 L 577.101 824.885 583.331 828.819 C 586.758 830.983, 592.732 834.351, 596.607 836.302 C 600.482 838.253, 608.130 841.409, 613.603 843.314 C 619.076 845.219, 627.367 847.609, 632.027 848.625 C 638.736 850.088, 644.664 850.464, 660.500 850.433 C 678.050 850.399, 681.585 850.113, 689.357 848.096 C 694.229 846.832, 701.352 844.504, 705.187 842.923 C 709.022 841.342, 715.252 837.991, 719.033 835.478 C 722.814 832.965, 728.672 827.892, 732.052 824.204 C 736.170 819.711, 739.623 814.531, 742.521 808.500 C 744.899 803.550, 747.659 795.900, 748.654 791.500 C 749.917 785.911, 750.434 779.732, 750.371 771 C 750.302 761.589, 749.751 756.548, 748.142 750.601 C 746.967 746.257, 744.459 739.957, 742.569 736.601 C 740.678 733.246, 736.064 727.547, 732.316 723.938 C 728.567 720.329, 723.700 716.195, 721.500 714.751 C 719.300 713.308, 716.826 711.986, 716.001 711.814 C 715.177 711.641, 713.452 709.475, 712.168 707 C 710.884 704.525, 708.007 700.125, 705.774 697.223 C 703.542 694.321, 698.742 689.685, 695.108 686.922 C 691.473 684.158, 684 679.723, 678.500 677.066 C 673 674.409, 665.350 671.226, 661.500 669.994 C 657.650 668.761, 654.075 667.361, 653.557 666.883 C 652.983 666.354, 653.768 664.784, 655.557 662.880 C 657.175 661.157, 660.750 658.683, 663.500 657.383 C 667.537 655.475, 670.151 655.018, 677.068 655.010 C 682.068 655.004, 687.899 655.672, 691.067 656.612 C 694.053 657.499, 699.422 659.713, 702.998 661.532 C 706.574 663.350, 711.051 666.001, 712.948 667.421 C 714.844 668.842, 716.726 669.666, 717.130 669.252 C 717.535 668.839, 723.117 658.234, 729.536 645.687 C 735.955 633.139, 741.047 622.732, 740.853 622.559 C 740.659 622.387, 738.627 621.302, 736.338 620.148 C 734.050 618.994, 728.854 616.730, 724.793 615.116 C 720.732 613.503, 713.744 611.179, 709.264 609.951 L 701.119 607.719 705.060 599.882 C 707.227 595.571, 709 591.645, 709 591.156 C 709 590.668, 705.737 588.808, 701.750 587.024 C 697.763 585.240, 689.843 582.222, 684.151 580.316 C 678.459 578.410, 669.459 575.985, 664.151 574.925 C 658.843 573.866, 648.650 572.787, 641.500 572.527 C 633.211 572.225, 625.589 572.533, 620.466 573.375 M 445.782 665.750 C 445.516 747.672, 445.397 752.736, 443.647 756.737 C 442.627 759.068, 440.249 762.330, 438.362 763.987 C 435.387 766.599, 434.156 767, 429.113 767 C 424.718 767, 422.471 766.444, 419.922 764.726 C 418.066 763.476, 415.512 760.916, 414.247 759.039 C 412.982 757.162, 411.218 753.122, 410.327 750.063 L 408.706 744.500 388.942 764.941 L 369.177 785.381 373.455 790.941 C 375.808 793.998, 379.820 798.424, 382.371 800.775 C 384.922 803.126, 389.752 806.822, 393.104 808.989 C 396.457 811.156, 400.078 813.207, 401.152 813.548 C 402.704 814.041, 402.865 814.458, 401.935 815.579 C 400.996 816.710, 401.900 818.378, 406.505 824.007 C 409.663 827.866, 415.005 833.219, 418.377 835.902 C 421.748 838.585, 427.205 842.142, 430.503 843.807 C 433.802 845.472, 439.200 847.659, 442.500 848.667 C 447.182 850.097, 451.685 850.490, 463 850.452 C 473.743 850.417, 479.184 849.940, 483.998 848.611 C 487.571 847.624, 493.173 845.690, 496.446 844.312 C 499.719 842.935, 504.848 840.240, 507.843 838.324 C 510.838 836.408, 515.672 832.586, 518.585 829.832 C 521.497 827.077, 525.737 821.973, 528.006 818.490 C 530.276 815.007, 533 809.874, 534.060 807.084 C 535.120 804.293, 536.656 798.178, 537.473 793.494 C 538.708 786.410, 538.963 770.273, 538.989 697.489 L 539.020 610 523.010 610 L 507 610 507 594.500 L 507 579 476.532 579 L 446.063 579 445.782 665.750 M 719.349 740 C 719.349 744.675, 719.522 746.587, 719.732 744.250 C 719.943 741.913, 719.943 738.087, 719.732 735.750 C 719.522 733.413, 719.349 735.325, 719.349 740" stroke="none" fill="#fafab9" fill-rule="evenodd"/></svg>